<svg width="102" height="42" viewBox="0 0 102 42" fill="none" xmlns="http://www.w3.org/2000/svg">
<path d="M95.0632 38.8817C95.3697 38.47 95.523 37.9182 95.523 37.2263V31.4718C95.523 30.7798 95.3697 30.228 95.0632 29.8163V29.7507H97.8878V29.8163C97.5813 30.228 97.428 30.7798 97.428 31.4718V38.6189H98.7418C99.3286 38.6189 99.8147 38.5313 100.2 38.3562C100.594 38.1722 100.914 37.9226 101.159 37.6073C101.413 37.2832 101.65 36.8672 101.869 36.3592H102L101.672 38.9474H95.0632V38.8817Z" fill="white"/>
<path d="M85.349 38.8817C85.8482 38.4613 86.2336 37.9138 86.5051 37.2394L89.4612 29.7507H90.5385L93.4682 37.2C93.6171 37.5766 93.766 37.8919 93.9149 38.146C94.0638 38.3912 94.2521 38.6364 94.4799 38.8817V38.9474H91.2217V38.8817C91.4494 38.5927 91.5632 38.2686 91.5632 37.9095C91.5632 37.6555 91.5151 37.4146 91.4187 37.1869L90.8932 35.873H87.4511L86.965 37.0949C86.8686 37.3226 86.8205 37.5547 86.8205 37.7912C86.8205 38.2204 86.9781 38.5839 87.2934 38.8817V38.9474H85.349V38.8817ZM89.1721 31.4323L87.5693 35.5446H90.775L89.1721 31.4323Z" fill="white"/>
<path d="M80.6684 38.8817C80.9749 38.47 81.1282 37.9182 81.1282 37.2263V30.0791H80.6421C79.9677 30.0791 79.4027 30.2806 78.9473 30.6835C78.4918 31.0776 78.1021 31.6426 77.778 32.3783H77.6466L77.9751 29.7507H86.1994L86.5148 32.3783H86.3834C86.0681 31.6426 85.6827 31.0776 85.2272 30.6835C84.7718 30.2806 84.2025 30.0791 83.5193 30.0791H83.0332V37.2263C83.0332 37.9182 83.1865 38.47 83.493 38.8817V38.9474H80.6684V38.8817Z" fill="white"/>
<path d="M74.2927 38.8817C74.5992 38.47 74.7525 37.9182 74.7525 37.2263V31.4718C74.7525 30.7798 74.5992 30.228 74.2927 29.8163V29.7507H77.1173V29.8163C76.8108 30.228 76.6575 30.7798 76.6575 31.4718V37.2263C76.6575 37.9182 76.8108 38.47 77.1173 38.8817V38.9474H74.2927V38.8817Z" fill="white"/>
<path d="M66.1161 38.8817C66.4227 38.47 66.5759 37.9182 66.5759 37.2263V31.4718C66.5759 30.7798 66.4227 30.228 66.1161 29.8163V29.7507H69.8473C70.8808 29.7507 71.7435 29.9609 72.4355 30.3813C73.1362 30.793 73.4865 31.4805 73.4865 32.444C73.4865 33.0659 73.3245 33.587 73.0004 34.0074C72.6763 34.4191 72.2515 34.7213 71.726 34.914C71.2093 35.1067 70.6575 35.203 70.0706 35.203C69.6502 35.203 69.2517 35.1286 68.8751 34.9797V34.7694C69.1291 34.8308 69.3918 34.8614 69.6634 34.8614C70.259 34.8614 70.7144 34.6337 71.0297 34.1782C71.3538 33.714 71.5158 33.1359 71.5158 32.444C71.5158 31.7871 71.3494 31.2265 71.0166 30.7623C70.6925 30.2981 70.2283 30.066 69.6239 30.066C69.2211 30.066 68.8401 30.1317 68.4809 30.263V37.2263C68.4809 37.9182 68.6342 38.47 68.9408 38.8817V38.9474H66.1161V38.8817Z" fill="white"/>
<path d="M56.4019 38.8817C56.9012 38.4613 57.2866 37.9138 57.5581 37.2394L60.5141 29.7507H61.5914L64.5212 37.2C64.6701 37.5766 64.819 37.8919 64.9679 38.146C65.1168 38.3912 65.3051 38.6364 65.5328 38.8817V38.9474H62.2746V38.8817C62.5023 38.5927 62.6162 38.2686 62.6162 37.9095C62.6162 37.6555 62.568 37.4146 62.4717 37.1869L61.9462 35.873H58.504L58.0179 37.0949C57.9216 37.3226 57.8734 37.5547 57.8734 37.7912C57.8734 38.2204 58.031 38.5839 58.3464 38.8817V38.9474H56.4019V38.8817ZM60.2251 31.4323L58.6223 35.5446H61.8279L60.2251 31.4323Z" fill="white"/>
<path d="M53.3591 39.118C52.5095 39.118 51.7519 38.9165 51.0862 38.5136C50.4205 38.1107 49.9038 37.5589 49.5359 36.8582C49.1681 36.1487 48.9841 35.3473 48.9841 34.4539C48.9841 33.5167 49.19 32.6803 49.6016 31.9445C50.022 31.2 50.6001 30.6219 51.3358 30.2103C52.0716 29.7899 52.8992 29.5797 53.8189 29.5797C54.3707 29.5797 54.8918 29.641 55.3823 29.7636C55.8816 29.8862 56.2845 30.022 56.591 30.1709V32.6277H56.4596C56.2056 31.8657 55.8027 31.2351 55.2509 30.7358C54.6991 30.2278 54.0685 29.9738 53.3591 29.9738C52.8336 29.9738 52.3693 30.1183 51.9664 30.4074C51.5723 30.6876 51.2614 31.0993 51.0337 31.6423C50.8147 32.1766 50.7052 32.816 50.7052 33.5605C50.7052 34.3488 50.8541 35.0583 51.1519 35.6889C51.4497 36.3195 51.8613 36.8188 52.3869 37.1867C52.9211 37.5458 53.5255 37.7253 54.1999 37.7253C54.813 37.7253 55.3473 37.572 55.8027 37.2655C56.2669 36.9502 56.6392 36.4947 56.9195 35.8991H57.0508C56.9545 36.5122 56.7399 37.064 56.4071 37.5545C56.083 38.0363 55.6582 38.4173 55.1327 38.6975C54.6159 38.9778 54.0247 39.118 53.3591 39.118Z" fill="white"/>
<path d="M39.6206 38.8817C39.9271 38.47 40.0804 37.9182 40.0804 37.2263V31.4718C40.0804 30.7798 39.9271 30.228 39.6206 29.8163V29.7507H46.1239L46.4523 32.26H46.3209C46.0056 31.5331 45.6159 30.99 45.1517 30.6309C44.6962 30.263 44.0437 30.0791 43.1941 30.0791H41.9854V34.1519H43.2072C43.7065 34.1519 44.0962 34.0337 44.3765 33.7972C44.6655 33.5607 44.8758 33.2191 45.0071 32.7724H45.1385V35.8599H45.0071C44.8758 35.4132 44.6655 35.0716 44.3765 34.8351C44.0962 34.5986 43.7065 34.4804 43.2072 34.4804H41.9854V37.2263C41.9854 37.9182 42.1387 38.47 42.4452 38.8817V38.9474H39.6206V38.8817Z" fill="white"/>
<path d="M31.6222 38.8817C31.9288 38.47 32.0821 37.9182 32.0821 37.2263V31.4718C32.0821 30.7798 31.9288 30.228 31.6222 29.8163V29.7507H38.073L38.4014 32.26H38.27C37.9547 31.5331 37.565 30.99 37.1007 30.6309C36.6453 30.263 35.9928 30.0791 35.1432 30.0791H33.9871V34.1519H35.1563C35.6556 34.1519 36.0453 34.0337 36.3256 33.7972C36.6146 33.5607 36.8205 33.2191 36.9431 32.7724H37.0745V35.8599H36.9431C36.8205 35.4132 36.6146 35.0716 36.3256 34.8351C36.0453 34.5986 35.6556 34.4804 35.1563 34.4804H33.9871V38.6189H35.4322C36.2818 38.6189 36.9343 38.4394 37.3898 38.0803C37.854 37.7124 38.2437 37.165 38.5591 36.438H38.6904L38.362 38.9474H31.6222V38.8817Z" fill="white"/>
<path d="M30.5902 34.3488C30.5902 35.2948 30.4019 36.1312 30.0252 36.8582C29.6574 37.5764 29.1319 38.1326 28.4487 38.5268C27.7743 38.9209 26.986 39.118 26.0839 39.118C25.8561 39.118 25.6372 39.1048 25.427 39.0786C25.7773 39.4377 26.2415 39.6654 26.8196 39.7617C27.4064 39.8668 28.1947 39.9194 29.1844 39.9194V41.6011H28.8034C27.8925 41.6011 27.0999 41.3734 26.4254 40.9179C25.7598 40.4624 25.3131 39.8318 25.0854 39.026C24.3672 38.8946 23.7453 38.6187 23.2198 38.1983C22.6943 37.7691 22.287 37.2261 21.998 36.5692C21.7177 35.9123 21.5775 35.1721 21.5775 34.3488C21.5775 33.4029 21.7615 32.5708 22.1293 31.8526C22.506 31.1256 23.0315 30.565 23.7059 30.1709C24.3891 29.7767 25.1817 29.5797 26.0839 29.5797C26.986 29.5797 27.7743 29.7767 28.4487 30.1709C29.1319 30.565 29.6574 31.1256 30.0252 31.8526C30.4019 32.5708 30.5902 33.4029 30.5902 34.3488ZM23.6139 34.3488C23.6139 35.2247 23.7103 35.9955 23.903 36.6611C24.1044 37.3268 24.3891 37.8479 24.7569 38.2246C25.1335 38.5924 25.5759 38.7764 26.0839 38.7764C26.6006 38.7764 27.0429 38.5924 27.4108 38.2246C27.7874 37.8479 28.0721 37.3268 28.2648 36.6611C28.4574 35.9955 28.5538 35.2247 28.5538 34.3488C28.5538 33.4729 28.4574 32.7022 28.2648 32.0365C28.0721 31.3708 27.7874 30.8541 27.4108 30.4862C27.0429 30.1096 26.6006 29.9212 26.0839 29.9212C25.5759 29.9212 25.1335 30.1096 24.7569 30.4862C24.3891 30.8541 24.1044 31.3708 23.903 32.0365C23.7103 32.7022 23.6139 33.4729 23.6139 34.3488Z" fill="white"/>
<path d="M9.3962 31.498C9.26482 31.1214 9.12469 30.8017 8.97579 30.5389C8.82689 30.2762 8.6561 30.0353 8.46341 29.8163V29.7507H11.6822V29.8163C11.4194 30.1404 11.2881 30.4952 11.2881 30.8805C11.2881 31.0732 11.3275 31.2834 11.4063 31.5112L13.377 37.0949L14.809 32.9826L14.2704 31.498C14.1302 31.0951 13.9901 30.7667 13.85 30.5127C13.7186 30.2499 13.5566 30.0178 13.3639 29.8163V29.7507H16.5827V29.8163C16.3024 30.1667 16.1622 30.5346 16.1622 30.92C16.1622 31.1302 16.1973 31.3272 16.2673 31.5112L18.238 37.0949L20.1693 31.59C20.2657 31.301 20.3138 31.0557 20.3138 30.8543C20.3138 30.4514 20.1606 30.1054 19.854 29.8163V29.7507H21.7984V29.8163C21.2116 30.3156 20.8087 30.8805 20.5897 31.5112L17.9753 38.9474H16.898L15.0061 33.5739L13.1011 38.9474H12.0238L9.3962 31.498Z" fill="white"/>
<path d="M0.539764 38.8817C1.03901 38.4613 1.42439 37.9138 1.6959 37.2394L4.65194 29.7507H5.72925L8.65901 37.2C8.80791 37.5766 8.95681 37.8919 9.1057 38.146C9.2546 38.3912 9.44291 38.6364 9.67063 38.8817V38.9474H6.41243V38.8817C6.64015 38.5927 6.75401 38.2686 6.75401 37.9095C6.75401 37.6555 6.70584 37.4146 6.60949 37.1869L6.08398 35.873H2.64184L2.15573 37.0949C2.05939 37.3226 2.01121 37.5547 2.01121 37.7912C2.01121 38.2204 2.16887 38.5839 2.48418 38.8817V38.9474H0.539764V38.8817ZM4.36291 31.4323L2.76008 35.5446H5.96573L4.36291 31.4323Z" fill="white"/>
<path d="M87.628 4.52758C91.2133 5.52779 90.1747 10.99 90.2432 12.122C90.2469 12.1859 90.3017 12.2334 90.3656 12.2276L90.9101 12.1789C90.9862 12.1722 91.0425 12.1083 91.0434 12.0316C91.0504 11.3887 90.3638 5.94875 91.8032 4.93789C91.8452 4.90836 91.886 4.86453 91.9304 4.82679C91.6829 5.63402 92.5973 5.98771 93.5174 5.3689C94.4379 4.74978 94.8814 4.48222 95.5842 4.75769C96.0176 4.92754 96.378 5.30193 96.6376 5.65015C96.7064 5.74238 96.8498 5.6608 96.8057 5.55457C96.4325 4.65694 95.6749 3.33651 94.4233 3.13501C93.3022 2.95421 92.208 3.41322 91.3941 4.17205C90.9704 4.56684 90.6018 5.06786 90.3361 5.58258C89.8691 4.92328 88.9064 4.10935 87.6356 4.43109C87.5881 4.44296 87.5808 4.51449 87.628 4.52758Z" fill="white"/>
<path d="M30.3866 13.5576C32.8246 14.8771 32.2749 20.0882 32.3821 20.9523L32.9336 20.903C32.9452 20.9021 32.9549 20.8942 32.9567 20.8826C33.0149 20.5012 32.327 14.65 33.4538 13.8586C33.4848 13.8367 33.5147 13.8048 33.5469 13.7768C33.3655 14.3703 34.0373 14.6303 34.7136 14.1752C35.39 13.7204 35.7156 13.5238 36.2325 13.7262C36.5509 13.851 36.8157 14.1265 37.0065 14.3822C37.057 14.4498 37.1624 14.3907 37.1301 14.3125C36.8559 13.6532 36.2991 12.6819 35.379 12.5336C34.5553 12.4009 33.7512 12.7382 33.1531 13.2958C32.8417 13.5859 32.5708 13.9542 32.3754 14.3323C32.0329 13.8486 31.3265 13.2508 30.3942 13.4855C30.3601 13.494 30.3558 13.5409 30.3866 13.5576Z" fill="white"/>
<path d="M66.2756 11.8116C66.2071 11.3812 65.9968 10.7861 65.4534 10.0909C65.2151 9.82336 64.9747 9.58625 64.6526 9.4024C64.9549 9.30956 65.3022 9.13697 65.7813 8.86059C66.7398 8.30752 67.2137 7.62479 67.5409 6.84982C67.8687 6.07455 68.1846 4.81105 67.5381 4.04612C66.8916 3.2812 66.2765 3.61938 66.0041 3.85284C65.6166 4.18584 65.7061 4.73951 66.0318 4.97298C66.4877 5.29958 66.954 4.89962 66.9735 4.66616C67.3747 5.16657 67.0931 5.74642 66.6439 6.08916C66.1943 6.43251 65.8071 6.58622 64.8228 6.84251C63.8384 7.0985 63.2436 7.18586 62.8778 7.58369C62.6084 7.87712 62.4605 8.53794 62.9797 8.85633V8.85694C61.8767 8.56869 58.1039 7.76937 56.9551 9.26664C56.9393 9.28734 56.9259 9.30895 56.911 9.33026C56.8568 9.35918 56.8243 9.37653 56.8243 9.37653C56.8444 9.37409 56.8641 9.37166 56.8842 9.36922C56.4541 10.0322 57.5834 9.32661 59.2538 9.12115C60.9827 9.02709 62.1138 9.25782 62.9167 9.63495C62.1643 9.7774 62.1138 10.6072 62.5329 11.0038C63.1325 11.5711 63.7915 11.17 64.7561 11.1584C65.3341 11.1511 65.7478 11.3179 66.1057 11.874C66.1599 11.9586 66.2914 11.9108 66.2756 11.8116Z" fill="white"/>
<path d="M81.6764 4.30153C81.5726 5.20191 80.759 5.84781 79.8586 5.74402C78.9583 5.64083 78.3124 4.8266 78.4159 3.92623C78.5193 3.02616 79.3336 2.37995 80.2339 2.48374C81.134 2.58723 81.7799 3.40116 81.6764 4.30153Z" fill="white"/>
<path d="M74.3275 4.50918C74.2237 5.40956 73.4101 6.05546 72.5098 5.95167C71.6094 5.84848 70.9635 5.03425 71.067 4.13388C71.1705 3.23381 71.9847 2.5876 72.8851 2.69139C73.7851 2.79488 74.431 3.60881 74.3275 4.50918Z" fill="white"/>
<path d="M85.4155 4.13556C85.3117 5.03593 84.4981 5.68184 83.5977 5.57804C82.6974 5.47485 82.0515 4.66062 82.155 3.76025C82.2585 2.86018 83.0727 2.21397 83.973 2.31777C84.8731 2.42126 85.5193 3.23518 85.4155 4.13556Z" fill="white"/>
<path d="M3.63473 18.996C2.82842 18.8928 2.25862 18.1553 2.36211 17.3492C2.4653 16.5429 3.20251 15.9731 4.00881 16.0763C4.81481 16.1798 5.38491 16.917 5.28142 17.7233C5.17824 18.5293 4.44103 19.0992 3.63473 18.996Z" fill="white"/>
<path d="M3.89626 22.7387C3.08996 22.6355 2.52016 21.8983 2.62365 21.092C2.72683 20.2857 3.46404 19.7159 4.27035 19.8191C5.07634 19.9226 5.64645 20.6598 5.54296 21.4661C5.43977 22.2721 4.70256 22.8419 3.89626 22.7387Z" fill="white"/>
<path d="M14.5602 16.0069C14.2318 16.0303 13.9387 15.936 13.7125 15.7341C13.4712 15.518 13.3181 15.1799 13.3038 14.8298C13.298 14.6901 13.305 14.5467 13.3123 14.4082C13.3263 14.1319 13.3394 13.8713 13.2569 13.6491C13.2331 13.5852 13.1707 13.493 13.1248 13.4263L13.0298 13.2844L13.0685 13.1743C13.1403 12.9682 13.3847 12.5104 13.4474 12.3993L13.5926 12.1421L13.8099 12.3424C14.0288 12.5439 14.1414 13.0017 14.1712 13.3322L14.1722 13.3475C14.1743 13.4254 14.1719 13.5255 14.1691 13.6372C14.1636 13.857 14.1563 14.1306 14.1852 14.3483C14.2017 14.4694 14.2912 14.8627 14.7633 14.8289C14.7897 14.8268 14.8171 14.8237 14.8454 14.8192C15.0722 14.7826 15.3413 14.5915 15.4213 14.2953C15.4283 14.2436 15.4308 14.1319 15.3815 13.9255C15.3276 13.7002 15.2545 13.5103 15.1294 13.2701C15.0387 13.096 14.9964 13.0056 14.9852 12.9277L14.9806 12.8973L14.9845 12.8665C15.0162 12.5981 15.1867 12.181 15.2521 12.0529L15.3851 11.7923L15.61 11.9792C15.7029 12.0562 15.7811 12.1561 15.8484 12.2839C16.006 12.5822 16.1652 13.009 16.2359 13.3213C16.2474 13.3712 16.2578 13.4205 16.2675 13.4692C16.3086 13.6692 16.3445 13.8421 16.4486 13.9891C16.5752 14.1325 16.8306 14.2889 17.1447 14.2664C17.2023 14.2621 17.4004 14.1121 17.4576 14.0962C17.4382 14.0682 17.4172 14.0387 17.3937 14.0086C17.3173 13.9066 17.2385 13.8095 17.1609 13.713C16.9718 13.4786 16.7764 13.2367 16.6224 12.9514C16.5466 12.8105 16.5074 12.7031 16.4988 12.6127C16.4815 12.4166 16.5545 12.245 16.6258 12.0791C16.6477 12.0276 16.8245 11.638 16.8945 11.6365C16.9448 11.8563 17.2799 12.4568 17.4372 12.6702C17.5276 12.7929 17.6156 12.9012 17.7087 13.0163L17.8037 13.1335C17.9647 13.3338 18.0545 13.4966 18.1047 13.678C18.1647 13.896 18.1714 14.1504 18.1236 14.3751C18.0953 14.5081 18.0484 14.6405 17.9766 14.7924L17.9684 14.8079C17.8019 15.1016 17.5599 15.4072 17.0272 15.4453C16.9329 15.4523 16.8309 15.4498 16.7241 15.4392C16.4027 15.406 16.1062 15.2575 15.8943 15.0374C15.632 15.5539 15.2494 15.876 14.7709 15.9767C14.7 15.992 14.6287 16.002 14.5602 16.0069Z" fill="white"/>
<path d="M31.5241 3.38884L32.5106 2.07359L33.4426 4.15619L32.9492 4.92355L33.4009 8.81116C33.4876 9.60531 33.3166 10.4122 32.8868 11.0858C32.7154 11.3543 32.5142 11.5792 32.2914 11.6648C32.2914 11.6648 32.2914 5.52623 31.5241 3.38884Z" fill="white"/>
<path d="M48.8316 8.1265L49.9687 6.35772L47.821 1.55664L45.5464 4.58893C47.3154 9.51633 47.3154 23.6669 47.3154 23.6669C47.8286 23.4697 48.2928 22.9513 48.6879 22.3319C49.6793 20.7792 50.0731 18.9194 49.8728 17.0879L48.8316 8.1265Z" fill="white"/>
<path d="M21.4151 1.55716L19.1411 4.31672C20.4079 7.52921 20.7674 15.0484 20.8693 19.056C20.3857 19.5025 19.7087 19.8666 18.7618 19.9725C15.7831 20.3052 16.2586 17.5322 16.2586 17.5322L15.4322 17.9572C15.4322 17.9572 13.5886 20.5268 10.4531 20.416C7.98462 20.3286 8.84145 16.3177 9.31811 14.6147C11.4396 12.8742 10.8446 9.8602 10.8446 9.8602L10.0611 8.5489C9.59236 7.76389 9.03808 7.02454 8.4071 6.34241L6.31601 4.08174L5.94223 2.12393L1.66142 0.398668L1.16589 4.1067C5.57819 6.97492 8.8311 12.0064 8.8311 12.0064C6.03446 13.0967 4.27757 11.2153 4.27757 11.2153L6.04085 8.89438L5.00809 7.66375C5.00809 7.66375 2.28601 10.4751 2.70423 13.3061C3.12215 16.1375 6.78749 15.6895 6.78749 15.6895C7.36277 15.5903 7.85861 15.4378 8.28748 15.2454L6.99295 19.052C6.99295 19.052 6.06368 22.4125 9.35555 23.5216C12.6477 24.6305 14.9994 20.9706 14.9994 20.9706C14.9994 20.9706 14.8423 23.4105 18.1348 23.1886C21.427 22.967 23.4669 20.4546 23.4669 15.6922L22.4256 7.53621L23.5628 5.92662L21.4151 1.55716Z" fill="white"/>
<path d="M42.1359 15.7074C41.644 15.6648 41.1522 15.7288 40.6743 15.8615L39.8619 8.12672L40.9987 6.35763L38.851 1.55655L36.577 4.58885C37.3142 6.64254 38.0767 15.0427 38.2557 17.107C38.1963 17.1502 38.1376 17.1941 38.08 17.2379C36.482 18.4585 34.6993 19.4152 32.7942 20.0593L32.5184 20.1524C32.5184 20.1524 29.1702 19.6733 28.8497 14.8975C28.5289 10.1214 28.0866 1.7121 28.0866 1.7121L24.8018 4.19528L25.9283 16.5737C25.9283 16.5737 25.6218 22.2231 31.9967 23.4778L32.0007 23.4538C36.2346 23.4866 40.0141 19.7555 40.902 19.1205C41.3116 18.8274 41.8766 18.8944 42.2077 19.273C42.3952 19.4873 42.4412 19.7905 42.3258 20.0504L42.2762 20.1624C41.97 20.3667 41.5643 20.3399 41.287 20.0973L40.7461 19.6243L38.7247 21.2668C38.7247 21.2668 39.1417 23.6747 42.0096 23.5408C45.4263 23.3816 45.1681 19.1187 45.1681 19.1187C45.1681 19.1187 45.0418 15.9604 42.1359 15.7074Z" fill="white"/>
<path d="M6.18678 5.76861C6.18678 5.76861 9.0233 2.65383 10.8852 2.26087L10.3921 4.84297C10.3921 4.84297 8.23009 5.72082 7.47401 6.81478L6.18678 5.76861Z" fill="white"/>
<path d="M42.4364 11.8446C42.588 11.4534 42.5551 11.1488 42.8504 11.0797C43.1901 10.9999 43.4065 11.349 43.3435 11.6126C43.5212 11.1198 43.5565 10.6623 43.1033 10.0737C43.2646 10.025 43.3812 9.91325 43.4494 9.77476C44.1278 10.7397 44.6039 11.9131 44.2873 13.1888C44.1842 13.6055 43.9629 14.0833 44.4864 14.3756C43.8283 14.392 43.0765 13.3982 43.1204 12.7705C42.903 12.8253 42.6556 12.815 42.3676 12.7297C41.7162 12.5371 41.54 11.9505 41.54 11.9505C41.789 12.2528 42.2848 12.2357 42.4364 11.8446Z" fill="white"/>
<path d="M44.1706 8.06164C44.019 8.45277 44.0519 8.75746 43.7566 8.82656C43.4169 8.90631 43.2005 8.55718 43.2635 8.29358C43.0858 8.78638 43.0505 9.24387 43.5037 9.83256C43.3424 9.88126 43.2258 9.99297 43.1576 10.1315C42.4791 9.16656 42.0031 7.99346 42.3196 6.71747C42.4228 6.30077 42.6441 5.82288 42.1206 5.53067C42.7786 5.51423 43.5308 6.50805 43.4866 7.1357C43.704 7.08091 43.9514 7.09126 44.2394 7.17648C44.8907 7.36916 45.067 7.95571 45.067 7.95571C44.818 7.65346 44.3222 7.6705 44.1706 8.06164Z" fill="white"/>
<path d="M15.8427 4.42464L15.3609 5.77337L15.9389 6.15872C15.9389 6.15872 14.8313 7.1702 14.3494 5.72497C13.8679 4.28005 15.4093 1.87145 15.4093 1.87145L15.2163 1.67908L13.8679 4.47273C13.8679 4.47273 12.8081 7.36287 14.3494 8.03739C15.8908 8.71191 16.8542 6.11063 16.8542 6.11063C16.8542 6.11063 16.9507 4.85808 15.8427 4.42464Z" fill="white"/>
<path d="M59.6716 13.9132L58.9134 15.935C58.9134 15.935 62.1986 16.3139 62.9568 18.8406H63.2852C63.2852 18.8406 63.841 16.061 66.2414 15.935L66.7466 13.6603C66.7466 13.6603 63.7144 13.7869 63.2091 16.9455C63.2091 16.9455 62.7039 14.1662 59.6716 13.9132Z" fill="white"/>
<path d="M93.6327 10.5728C93.6327 10.5728 90.7779 8.00044 88.7565 13.8127C88.7565 13.8127 87.6196 18.4874 91.0305 18.7401C91.0305 18.7401 94.0627 18.7401 95.4528 18.1085C95.4528 18.1085 94.9476 16.2131 93.787 15.0129C93.787 15.0129 90.3989 15.4551 90.02 13.8127C90.02 13.8127 91.5361 12.2962 93.8101 14.4443C93.8101 14.4443 95.7052 16.4657 95.9581 18.2345C95.9581 18.2345 85.4716 23.7217 84.9663 23.848H91.9893C91.9893 23.848 97.4739 21.5197 97.095 17.0973C97.095 17.0973 97.4739 13.0545 93.6327 10.5728Z" fill="white"/>
<path d="M87.3673 15.2654C87.3673 15.2654 87.7462 11.2225 83.9049 8.74087C83.9049 8.74087 81.0498 6.16851 79.0288 11.9801C79.0288 11.9801 77.8916 16.6552 81.3028 16.9078C81.3028 16.9078 84.335 16.9078 85.7248 16.2759C85.7248 16.2759 85.2192 14.3808 84.059 13.1806C84.059 13.1806 80.6712 13.6229 80.2922 11.9801C80.2922 11.9801 81.8081 10.4643 84.0821 12.6121C84.0821 12.6121 85.9775 14.6338 86.2301 16.4026C86.2301 16.4026 84.4504 18.0195 81.521 18.7728C80.0402 19.3037 78.0885 19.752 76.037 19.5286C76.3794 19.1965 76.6802 18.8477 76.9261 18.4818C77.3422 17.8615 77.7251 17.1687 78.0566 16.3947C78.0566 16.3947 79.0677 10.5827 73.8875 9.19319C73.8875 9.19319 69.5918 9.57215 70.2233 17.0266L70.9584 19.381L71.1386 19.3186C71.8886 19.0605 72.5972 18.6952 73.2431 18.2347L73.5085 18.045C73.5085 18.045 71.1082 15.6364 71.2345 14.3732C71.2345 14.3732 73.0033 11.5936 75.151 13.615L76.6671 15.6364C76.6671 15.6364 74.3428 19.9143 65.2461 20.9251H64.4879C61.2496 21.2737 59.3016 20.5093 58.0277 19.6948C55.0122 17.7665 55.1151 15.1302 55.0625 14.2652C54.8774 11.1964 58.0305 9.16549 58.0305 9.16549L57.7112 8.69948C57.7112 8.69948 50.6453 11.9321 53.0307 18.3117C55.0896 23.8174 60.58 24.0083 65.1198 23.7398C67.1798 23.6174 69.905 22.984 72.291 21.922C73.4939 22.2793 77.6737 23.2805 82.6052 21.701C82.6762 21.6785 87.7353 20.4199 87.3673 15.2654Z" fill="white"/>
<path d="M100.759 8.1265L101.896 6.35772L99.7487 1.55664L97.4741 4.58893C99.2428 9.51633 99.2428 23.6669 99.2428 23.6669C99.7563 23.4697 100.22 22.9513 100.616 22.3319C101.607 20.7792 102.001 18.9194 101.801 17.0879L100.759 8.1265Z" fill="white"/>
<path d="M57.2334 7.12853C57.3637 8.47696 56.9936 9.66649 56.1599 10.6007C56.018 10.4539 55.871 10.3115 55.7377 10.1584C56.439 9.3542 56.7376 8.35703 56.6243 7.18545C56.624 7.18027 56.6234 7.17571 56.6231 7.17053C56.5248 6.17732 56.2673 5.58803 55.9185 5.17163C56.2752 5.80932 55.6625 6.52189 54.9073 6.34869C54.3777 6.22694 54.1683 5.72896 53.8813 5.41088C53.5903 5.08853 52.8908 4.8432 52.3545 5.5789C52.3027 4.81306 53.0786 3.95896 54.1601 3.81894C54.4362 3.78333 55.3548 3.63722 56.2764 4.43441C56.0953 3.58913 56.5951 2.66897 57.2778 2.10738C58.0997 1.43073 59.3571 1.34124 59.3571 1.34124C58.8737 1.52844 58.4741 2.11042 58.3252 2.90944C58.1761 3.70875 58.783 4.34979 58.3039 4.97135C57.8632 5.54359 56.9811 5.34665 56.9735 4.77867C56.9226 5.52807 57.1439 6.22359 57.2319 7.11239C57.2325 7.11757 57.2331 7.12335 57.2334 7.12853Z" fill="white"/>
</svg>
